<svg width="1394" height="237" viewBox="0 0 1394 237" fill="none" xmlns="http://www.w3.org/2000/svg">
<path d="M0.771484 0.419922H94.291V118.797H128.188V0.419922H221.707V236.652H128.188V145.045H94.291V236.652H0.771484V0.419922ZM349.589 0.419922H456.841V119.492L349.589 0.419922ZM236.079 70.2988H235.036C235.036 46.4264 241.526 28.8118 254.505 17.4551C267.484 6.09831 287.474 0.419922 314.476 0.419922L456.841 173.205C456.841 196.15 450.641 212.548 438.241 222.398C426.189 232.017 406.489 236.826 379.14 236.826L236.079 70.2988ZM235.558 117.232L338.812 237H235.558V117.232ZM474.863 0.419922H568.383V237H474.863V0.419922ZM806.124 73.9492C806.124 108.947 790.827 131.95 760.234 142.959C777.385 149.333 790.306 159.704 798.997 174.074C806.53 186.822 810.296 201.655 810.296 218.574V237H706.694V0.0722656H715.734C746.327 0.0722656 768.867 5.86654 783.353 17.4551C798.534 29.623 806.124 48.4544 806.124 73.9492ZM584.319 0.419922H677.839V237H584.319V0.419922ZM826.233 0.419922H919.752V237H826.233V0.419922ZM1052.33 0.419922H1159.58V119.492L1052.33 0.419922ZM938.818 70.2988H937.775C937.775 46.4264 944.264 28.8118 957.243 17.4551C970.223 6.09831 990.213 0.419922 1017.21 0.419922L1159.58 173.205C1159.58 196.15 1153.38 212.548 1140.98 222.398C1128.93 232.017 1109.23 236.826 1081.88 236.826L938.818 70.2988ZM938.296 117.232L1041.55 237H938.296V117.232ZM1172.73 0.419922H1266.25V118.797H1300.15V0.419922H1393.67V236.652H1300.15V145.045H1266.25V236.652H1172.73V0.419922Z" fill="white"/>
</svg>
